<mxfile host="app.diagrams.net" modified="2023-02-06T09:20:51.042Z" agent="5.0 (Windows NT 10.0; Win64; x64) AppleWebKit/537.36 (KHTML, like Gecko) Chrome/109.0.0.0 Safari/537.36" etag="cObXbfZd1MjsR_t7zIUH" version="20.8.16" type="github">
  <diagram id="R2lEEEUBdFMjLlhIrx00" name="Page-1">
    <mxGraphModel dx="1434" dy="796" grid="1" gridSize="10" guides="1" tooltips="1" connect="1" arrows="1" fold="1" page="1" pageScale="1" pageWidth="850" pageHeight="1100" math="0" shadow="0" extFonts="Permanent Marker^https://fonts.googleapis.com/css?family=Permanent+Marker">
      <root>
        <mxCell id="0" />
        <mxCell id="1" parent="0" />
        <mxCell id="u7q2TlzkQ2XdnOhE7I1g-4" style="edgeStyle=orthogonalEdgeStyle;rounded=0;orthogonalLoop=1;jettySize=auto;html=1;exitX=1;exitY=0.5;exitDx=0;exitDy=0;" edge="1" parent="1" source="u7q2TlzkQ2XdnOhE7I1g-1">
          <mxGeometry relative="1" as="geometry">
            <mxPoint x="340" y="290" as="targetPoint" />
          </mxGeometry>
        </mxCell>
        <mxCell id="u7q2TlzkQ2XdnOhE7I1g-1" value="Productos" style="rounded=0;whiteSpace=wrap;html=1;" vertex="1" parent="1">
          <mxGeometry x="60" y="260" width="120" height="60" as="geometry" />
        </mxCell>
        <mxCell id="u7q2TlzkQ2XdnOhE7I1g-5" style="edgeStyle=orthogonalEdgeStyle;rounded=0;orthogonalLoop=1;jettySize=auto;html=1;exitX=1;exitY=0.5;exitDx=0;exitDy=0;strokeColor=default;" edge="1" parent="1" source="u7q2TlzkQ2XdnOhE7I1g-2">
          <mxGeometry relative="1" as="geometry">
            <mxPoint x="610" y="290" as="targetPoint" />
          </mxGeometry>
        </mxCell>
        <mxCell id="u7q2TlzkQ2XdnOhE7I1g-2" value="comprar" style="rhombus;whiteSpace=wrap;html=1;" vertex="1" parent="1">
          <mxGeometry x="345" y="250" width="80" height="80" as="geometry" />
        </mxCell>
        <mxCell id="u7q2TlzkQ2XdnOhE7I1g-3" value="Clientes" style="rounded=0;whiteSpace=wrap;html=1;" vertex="1" parent="1">
          <mxGeometry x="620" y="260" width="120" height="60" as="geometry" />
        </mxCell>
        <mxCell id="u7q2TlzkQ2XdnOhE7I1g-11" value="" style="endArrow=none;html=1;rounded=0;strokeColor=default;entryX=0.5;entryY=1;entryDx=0;entryDy=0;" edge="1" parent="1" target="u7q2TlzkQ2XdnOhE7I1g-1">
          <mxGeometry width="50" height="50" relative="1" as="geometry">
            <mxPoint x="120" y="400" as="sourcePoint" />
            <mxPoint x="150" y="320" as="targetPoint" />
          </mxGeometry>
        </mxCell>
        <mxCell id="u7q2TlzkQ2XdnOhE7I1g-12" value="Suminsitrar" style="rhombus;whiteSpace=wrap;html=1;" vertex="1" parent="1">
          <mxGeometry x="80" y="400" width="80" height="80" as="geometry" />
        </mxCell>
        <mxCell id="u7q2TlzkQ2XdnOhE7I1g-14" style="edgeStyle=orthogonalEdgeStyle;rounded=0;orthogonalLoop=1;jettySize=auto;html=1;strokeColor=default;" edge="1" parent="1" source="u7q2TlzkQ2XdnOhE7I1g-13" target="u7q2TlzkQ2XdnOhE7I1g-12">
          <mxGeometry relative="1" as="geometry" />
        </mxCell>
        <mxCell id="u7q2TlzkQ2XdnOhE7I1g-13" value="proveedores" style="rounded=0;whiteSpace=wrap;html=1;" vertex="1" parent="1">
          <mxGeometry x="60" y="580" width="120" height="40" as="geometry" />
        </mxCell>
        <mxCell id="u7q2TlzkQ2XdnOhE7I1g-16" value="1 , N" style="text;html=1;align=center;verticalAlign=middle;resizable=0;points=[];autosize=1;strokeColor=none;fillColor=none;" vertex="1" parent="1">
          <mxGeometry x="220" y="240" width="50" height="30" as="geometry" />
        </mxCell>
        <mxCell id="u7q2TlzkQ2XdnOhE7I1g-17" value="1 , N" style="text;html=1;align=center;verticalAlign=middle;resizable=0;points=[];autosize=1;strokeColor=none;fillColor=none;" vertex="1" parent="1">
          <mxGeometry x="455" y="245" width="50" height="30" as="geometry" />
        </mxCell>
        <mxCell id="u7q2TlzkQ2XdnOhE7I1g-18" value="N , N" style="text;html=1;align=center;verticalAlign=middle;resizable=0;points=[];autosize=1;strokeColor=none;fillColor=none;" vertex="1" parent="1">
          <mxGeometry x="360" y="340" width="50" height="30" as="geometry" />
        </mxCell>
        <mxCell id="u7q2TlzkQ2XdnOhE7I1g-19" value="1 , N" style="text;html=1;align=center;verticalAlign=middle;resizable=0;points=[];autosize=1;strokeColor=none;fillColor=none;" vertex="1" parent="1">
          <mxGeometry x="115" y="355" width="50" height="30" as="geometry" />
        </mxCell>
        <mxCell id="u7q2TlzkQ2XdnOhE7I1g-20" value="N , 1" style="text;html=1;align=center;verticalAlign=middle;resizable=0;points=[];autosize=1;strokeColor=none;fillColor=none;" vertex="1" parent="1">
          <mxGeometry x="155" y="425" width="50" height="30" as="geometry" />
        </mxCell>
        <mxCell id="u7q2TlzkQ2XdnOhE7I1g-21" value="1 , N" style="text;html=1;align=center;verticalAlign=middle;resizable=0;points=[];autosize=1;strokeColor=none;fillColor=none;" vertex="1" parent="1">
          <mxGeometry x="125" y="495" width="50" height="30" as="geometry" />
        </mxCell>
        <mxCell id="u7q2TlzkQ2XdnOhE7I1g-22" value="&lt;font style=&quot;font-size: 36px;&quot;&gt;MODELO ENTIDAD RELACIÓN&lt;/font&gt;" style="text;html=1;align=center;verticalAlign=middle;resizable=0;points=[];autosize=1;strokeColor=none;fillColor=none;" vertex="1" parent="1">
          <mxGeometry x="140" y="60" width="540" height="60" as="geometry" />
        </mxCell>
        <mxCell id="u7q2TlzkQ2XdnOhE7I1g-29" style="edgeStyle=orthogonalEdgeStyle;rounded=0;orthogonalLoop=1;jettySize=auto;html=1;strokeColor=default;fontSize=12;" edge="1" parent="1" source="u7q2TlzkQ2XdnOhE7I1g-23">
          <mxGeometry relative="1" as="geometry">
            <mxPoint x="620" y="230" as="targetPoint" />
          </mxGeometry>
        </mxCell>
        <mxCell id="u7q2TlzkQ2XdnOhE7I1g-23" value="&lt;font size=&quot;3&quot;&gt;nombre&lt;/font&gt;" style="ellipse;whiteSpace=wrap;html=1;aspect=fixed;fontSize=36;" vertex="1" parent="1">
          <mxGeometry x="560" y="140" width="60" height="60" as="geometry" />
        </mxCell>
        <mxCell id="u7q2TlzkQ2XdnOhE7I1g-24" value="&lt;font size=&quot;3&quot;&gt;apellidos&lt;/font&gt;" style="ellipse;whiteSpace=wrap;html=1;aspect=fixed;fontSize=36;" vertex="1" parent="1">
          <mxGeometry x="630" y="140" width="70" height="70" as="geometry" />
        </mxCell>
        <mxCell id="u7q2TlzkQ2XdnOhE7I1g-25" value="DNI" style="ellipse;whiteSpace=wrap;html=1;aspect=fixed;fontSize=12;" vertex="1" parent="1">
          <mxGeometry x="700" y="155" width="45" height="45" as="geometry" />
        </mxCell>
        <mxCell id="u7q2TlzkQ2XdnOhE7I1g-26" value="Fecha" style="ellipse;whiteSpace=wrap;html=1;aspect=fixed;fontSize=12;" vertex="1" parent="1">
          <mxGeometry x="745" y="140" width="80" height="80" as="geometry" />
        </mxCell>
        <mxCell id="u7q2TlzkQ2XdnOhE7I1g-28" style="edgeStyle=orthogonalEdgeStyle;rounded=0;orthogonalLoop=1;jettySize=auto;html=1;entryX=0.058;entryY=0;entryDx=0;entryDy=0;entryPerimeter=0;strokeColor=default;fontSize=12;" edge="1" parent="1" source="u7q2TlzkQ2XdnOhE7I1g-27" target="u7q2TlzkQ2XdnOhE7I1g-3">
          <mxGeometry relative="1" as="geometry" />
        </mxCell>
        <mxCell id="u7q2TlzkQ2XdnOhE7I1g-27" value="Dirección" style="ellipse;whiteSpace=wrap;html=1;aspect=fixed;fontSize=12;" vertex="1" parent="1">
          <mxGeometry x="500" y="180" width="80" height="80" as="geometry" />
        </mxCell>
        <mxCell id="u7q2TlzkQ2XdnOhE7I1g-32" value="" style="endArrow=none;html=1;rounded=0;strokeColor=default;fontSize=12;exitX=0.842;exitY=0.017;exitDx=0;exitDy=0;exitPerimeter=0;" edge="1" parent="1" source="u7q2TlzkQ2XdnOhE7I1g-3">
          <mxGeometry width="50" height="50" relative="1" as="geometry">
            <mxPoint x="680" y="250" as="sourcePoint" />
            <mxPoint x="730" y="200" as="targetPoint" />
          </mxGeometry>
        </mxCell>
        <mxCell id="u7q2TlzkQ2XdnOhE7I1g-33" value="" style="endArrow=none;html=1;rounded=0;strokeColor=default;fontSize=12;" edge="1" parent="1" source="u7q2TlzkQ2XdnOhE7I1g-3">
          <mxGeometry width="50" height="50" relative="1" as="geometry">
            <mxPoint x="760" y="275" as="sourcePoint" />
            <mxPoint x="768.96" y="213.98" as="targetPoint" />
          </mxGeometry>
        </mxCell>
        <mxCell id="u7q2TlzkQ2XdnOhE7I1g-34" value="" style="endArrow=none;html=1;rounded=0;strokeColor=default;fontSize=12;exitX=0.433;exitY=-0.017;exitDx=0;exitDy=0;exitPerimeter=0;" edge="1" parent="1" source="u7q2TlzkQ2XdnOhE7I1g-3">
          <mxGeometry width="50" height="50" relative="1" as="geometry">
            <mxPoint x="660" y="250" as="sourcePoint" />
            <mxPoint x="669.48" y="208.98" as="targetPoint" />
          </mxGeometry>
        </mxCell>
      </root>
    </mxGraphModel>
  </diagram>
</mxfile>
